<?xml version="1.0" encoding="UTF-8" standalone="no"?>
<svg
   width="22"
   height="22"
   version="1.1"
   id="svg1"
   sodipodi:docname="bank.svg"
   inkscape:version="1.3.2 (091e20ef0f, 2023-11-25)"
   xmlns:inkscape="http://www.inkscape.org/namespaces/inkscape"
   xmlns:sodipodi="http://sodipodi.sourceforge.net/DTD/sodipodi-0.dtd"
   xmlns="http://www.w3.org/2000/svg"
   xmlns:svg="http://www.w3.org/2000/svg">
  <sodipodi:namedview
     id="namedview1"
     pagecolor="#ffffff"
     bordercolor="#000000"
     borderopacity="0.25"
     inkscape:showpageshadow="2"
     inkscape:pageopacity="0.0"
     inkscape:pagecheckerboard="0"
     inkscape:deskcolor="#d1d1d1"
     inkscape:zoom="19.863636"
     inkscape:cx="10.974828"
     inkscape:cy="11"
     inkscape:window-width="1262"
     inkscape:window-height="642"
     inkscape:window-x="1286"
     inkscape:window-y="750"
     inkscape:window-maximized="1"
     inkscape:current-layer="svg1" />
  <defs
     id="defs1">
    <style
       id="current-color-scheme"
       type="text/css">
   .ColorScheme-Text { color:#aaaaaa; } .ColorScheme-Highlight { color:#4285f4; }
  </style>
  </defs>
  <path
     style="fill:#f8f9fa;fill-opacity:1"
     class="ColorScheme-Text"
     d="m 11.00781,3.0003904 c -0.166308,0.00989 -0.331632,0.1128756 -0.599609,0.2734375 L 7.4999975,5.0160153 4.6015595,6.7523434 c -0.638198,0.358215 -0.551847,0.1965221 -0.601562,0.8828125 v 1.2578125 c 0,0.059578 0.03804,0.1074219 0.08594,0.1074219 h 0.914063 v 0.4277344 7.1445313 0.427734 h -0.232422 c -0.424987,0 -0.767578,0.378053 -0.767578,0.847656 V 19.00039 H 18 V 17.848046 C 18,17.378443 17.657408,17.00039 17.232422,17.00039 H 17 V 16.572656 9.4281247 9.0003903 h 0.914062 c 0.0479,0 0.08594,-0.047844 0.08594,-0.1074219 V 7.6624997 c -0.0014,-0.7238546 -0.01687,-0.559467 -0.625,-0.9238282 L 14.500003,5.0160153 11.607425,3.2835935 C 11.339762,3.0739699 11.174124,2.990505 11.007815,3.0003904 Z M 6.9999975,10.00039 h 3 v 6 h -3 z m 4.9999995,0 h 3 v 6 h -3 z"
     id="path1" />
</svg>
