<?xml version="1.0" encoding="UTF-8" standalone="no"?>
<svg
   width="16"
   height="16"
   version="1.1"
   id="svg1"
   sodipodi:docname="bank.svg"
   inkscape:version="1.3.2 (091e20ef0f, 2023-11-25)"
   xmlns:inkscape="http://www.inkscape.org/namespaces/inkscape"
   xmlns:sodipodi="http://sodipodi.sourceforge.net/DTD/sodipodi-0.dtd"
   xmlns="http://www.w3.org/2000/svg"
   xmlns:svg="http://www.w3.org/2000/svg">
  <sodipodi:namedview
     id="namedview1"
     pagecolor="#ffffff"
     bordercolor="#000000"
     borderopacity="0.25"
     inkscape:showpageshadow="2"
     inkscape:pageopacity="0.0"
     inkscape:pagecheckerboard="0"
     inkscape:deskcolor="#d1d1d1"
     inkscape:zoom="19.863636"
     inkscape:cx="10.949657"
     inkscape:cy="11"
     inkscape:window-width="1262"
     inkscape:window-height="1332"
     inkscape:window-x="1286"
     inkscape:window-y="60"
     inkscape:window-maximized="1"
     inkscape:current-layer="svg1" />
  <defs
     id="defs1">
    <style
       id="current-color-scheme"
       type="text/css">
   .ColorScheme-Text { color:#aaaaaa; } .ColorScheme-Highlight { color:#4285f4; }
  </style>
  </defs>
  <path
     style="fill:#f8f9fa;fill-opacity:1"
     class="ColorScheme-Text"
     d="M 8.0078102,3.9035655e-4 C 7.8415022,0.01028036 7.6761782,0.11326596 7.4082012,0.27382786 L 4.4999977,2.0160153 1.6015597,3.7523434 C 0.96336175,4.1105584 1.0497127,3.9488655 0.99999775,4.6351559 v 1.2578125 c 0,0.059578 0.03804,0.1074219 0.0859399,0.1074219 h 0.9140631 v 0.4277344 7.1445313 0.427734 h -0.232422 c -0.424987,0 -0.7675781,0.378053 -0.7675781,0.847656 V 16.00039 H 15 V 14.848046 C 15,14.378443 14.657408,14.00039 14.232422,14.00039 H 14 V 13.572656 6.4281247 6.0003903 h 0.914062 c 0.0479,0 0.08594,-0.047844 0.08594,-0.1074219 V 4.6624997 c -0.0014,-0.7238546 -0.01687,-0.559467 -0.625,-0.9238282 L 11.500003,2.0160153 8.6074252,0.28359346 C 8.3397623,0.07396986 8.1741243,-0.00949504 8.0078153,3.9035655e-4 Z M 3.9999977,7.00039 h 3 v 6 h -3 z m 4.9999996,0 h 2.9999997 v 6 H 8.9999973 Z"
     id="path1" />
</svg>
