<?xml version="1.0" encoding="UTF-8" standalone="no"?>
<svg
   version="1.1"
   viewBox="0 0 16 16"
   id="svg1"
   sodipodi:docname="calendar.svg"
   inkscape:version="1.3.2 (091e20ef0f, 2023-11-25)"
   xmlns:inkscape="http://www.inkscape.org/namespaces/inkscape"
   xmlns:sodipodi="http://sodipodi.sourceforge.net/DTD/sodipodi-0.dtd"
   xmlns="http://www.w3.org/2000/svg"
   xmlns:svg="http://www.w3.org/2000/svg">
  <defs
     id="defs1" />
  <sodipodi:namedview
     id="namedview1"
     pagecolor="#ffffff"
     bordercolor="#000000"
     borderopacity="0.25"
     inkscape:showpageshadow="2"
     inkscape:pageopacity="0.0"
     inkscape:pagecheckerboard="0"
     inkscape:deskcolor="#d1d1d1"
     inkscape:zoom="44.3125"
     inkscape:cx="8"
     inkscape:cy="8"
     inkscape:window-width="1262"
     inkscape:window-height="1332"
     inkscape:window-x="1286"
     inkscape:window-y="60"
     inkscape:window-maximized="1"
     inkscape:current-layer="svg1" />
  <path
     d="m 3.4285714,10.285714 h 2.2857143 v 2.285715 H 3.4285714 Z m 6.8571426,0 h 2.285715 v 2.285715 h -2.285715 z m -3.4285711,0 H 9.142857 v 2.285715 H 6.8571429 Z M 10.285714,6.8571429 h 2.285715 V 9.142857 h -2.285715 z m -3.4285711,0 H 9.142857 V 9.142857 H 6.8571429 Z M 3.1028571,0 A 3.12,3.12 0 0 0 0,3.1028571 V 12.897143 A 3.12,3.12 0 0 0 3.1028571,16 H 12.897143 A 3.12,3.12 0 0 0 16,12.897143 V 3.1028571 A 3.12,3.12 0 0 0 12.897143,0 Z M 2.2857143,5.7142857 H 13.714286 v 7.1828573 c 0,0.473143 -0.342857,0.817143 -0.817143,0.817143 H 3.1028571 A 0.79085714,0.79085714 0 0 1 2.2857143,12.897143 Z"
     fill="#f8f9fa"
     id="path1"
     style="stroke-width:1.14286" />
</svg>
