<?xml version="1.0" encoding="UTF-8" standalone="no"?>
<svg
   class="buttonIcon"
   width="16"
   height="16"
   viewBox="0 0 16 16"
   version="1.1"
   id="svg1"
   sodipodi:docname="paint.svg"
   inkscape:version="1.3.2 (091e20ef0f, 2023-11-25)"
   xmlns:inkscape="http://www.inkscape.org/namespaces/inkscape"
   xmlns:sodipodi="http://sodipodi.sourceforge.net/DTD/sodipodi-0.dtd"
   xmlns="http://www.w3.org/2000/svg"
   xmlns:svg="http://www.w3.org/2000/svg">
  <defs
     id="defs1" />
  <sodipodi:namedview
     id="namedview1"
     pagecolor="#ffffff"
     bordercolor="#000000"
     borderopacity="0.25"
     inkscape:showpageshadow="2"
     inkscape:pageopacity="0.0"
     inkscape:pagecheckerboard="0"
     inkscape:deskcolor="#d1d1d1"
     inkscape:zoom="27.3125"
     inkscape:cx="7.9633867"
     inkscape:cy="8"
     inkscape:window-width="1262"
     inkscape:window-height="1332"
     inkscape:window-x="1286"
     inkscape:window-y="60"
     inkscape:window-maximized="1"
     inkscape:current-layer="svg1" />
  <path
     d="M 15.994945,0.0073318 C 15.795574,-0.22782214 9.1798703,5.3590399 6.7229662,8.1342637 7.3613527,8.2972539 7.9935307,8.616136 8.4416528,9.2302051 8.5608836,9.3935901 8.6568575,9.5857201 8.7496771,9.7792921 11.402672,6.8805801 16.176903,0.2198819 15.994945,0.0073318 Z M 5.8859436,9.1431551 C 4.7085635,9.1781951 3.5833708,10.134531 2.8012361,12.147508 1.9062766,14.448053 0.30996186,15.368796 2.5531137e-7,15.31257 1.5855528,15.928431 6.2625568,17.455641 7.8055155,12.185453 8.1816245,11.290967 7.9719858,10.521678 7.5198118,9.9020551 7.1662309,9.4175371 6.5693335,9.2066641 5.8859436,9.1431551 Z"
     id="path1"
     style="fill:#f8f9fa;fill-opacity:1;stroke-width:1.14281" />
</svg>
