<?xml version="1.0" encoding="UTF-8" standalone="no"?>
<svg
   class="buttonIcon"
   width="16"
   height="16"
   viewBox="0 0 16 16"
   version="1.1"
   id="svg1"
   sodipodi:docname="paint.svg"
   inkscape:version="1.3.2 (091e20ef0f, 2023-11-25)"
   xmlns:inkscape="http://www.inkscape.org/namespaces/inkscape"
   xmlns:sodipodi="http://sodipodi.sourceforge.net/DTD/sodipodi-0.dtd"
   xmlns="http://www.w3.org/2000/svg"
   xmlns:svg="http://www.w3.org/2000/svg">
  <defs
     id="defs1" />
  <sodipodi:namedview
     id="namedview1"
     pagecolor="#ffffff"
     bordercolor="#000000"
     borderopacity="0.25"
     inkscape:showpageshadow="2"
     inkscape:pageopacity="0.0"
     inkscape:pagecheckerboard="0"
     inkscape:deskcolor="#d1d1d1"
     inkscape:zoom="27.3125"
     inkscape:cx="8"
     inkscape:cy="8"
     inkscape:window-width="1262"
     inkscape:window-height="642"
     inkscape:window-x="1286"
     inkscape:window-y="750"
     inkscape:window-maximized="1"
     inkscape:current-layer="svg1" />
  <path
     d="M 14.996094 1.0058594 C 14.821638 0.8000921 9.0326826 5.688777 6.8828125 8.1171875 C 7.4414213 8.2598092 7.9945975 8.5388413 8.3867188 9.0761719 C 8.4910496 9.2191385 8.5750299 9.3872587 8.65625 9.5566406 C 10.977707 7.0201738 15.155313 1.1918476 14.996094 1.0058594 z M 6.1503906 9 C 5.120145 9.0306611 4.135565 9.8674859 3.4511719 11.628906 C 2.6680534 13.641957 1.2712264 14.447637 1 14.398438 C 2.3874097 14.937336 6.4799394 16.273694 7.8300781 11.662109 C 8.1591856 10.879405 7.975745 10.206252 7.5800781 9.6640625 C 7.2706834 9.2400934 6.7483789 9.0555723 6.1503906 9 z"
     id="path1"
     style="fill:#f8f9fa;fill-opacity:1" />
</svg>
